# AST/ASF file generated using VICON BodyLanguage
# -----------------------------------------------
:version 1.10
:name VICON
:units
  mass 1.0
  length 0.45
  angle deg
:documentation
   .ast/.asf automatically generated from VICON data using
   VICON BodyBuilder and BodyLanguage model FoxedUp or BRILLIANT.MOD
:root
   order TX TY TZ RX RY RZ
   axis XYZ
   position 0 0 0  
   orientation 0 0 0 
:bonedata
  begin
     id 1 
     name lhipjoint
     direction 0.584852 -0.759097 0.285867 
     length 2.43633 
     axis 0 0 0  XYZ
  end
  begin
     id 2 
     name lfemur
     direction 0.34202 -0.939693 0  
     length 7.14704  
     axis 0 0 20  XYZ
    dof rx ry rz
    limits (-160.0 20.0)
           (-70.0 70.0)
           (-60.0 70.0)
  end
  begin
     id 3 
     name ltibia
     direction 0.342022 -0.939692 0   
     length 7.68483   
     axis 0 0 20   XYZ
    dof rx
    limits (-10.0 170.0)
  end
  begin
     id 4 
     name lfoot
     direction 0.0999605 -0.274639 0.956337   
     length 2.40452   
     axis -90 7.62852e-016 20   XYZ
    dof rx rz
    limits (-45.0 90.0)
           (-70.0 20.0)
  end
  begin
     id 5 
     name ltoes
     direction 1.53468e-011 -4.21881e-011 1   
     length 1.19837   
     axis -90 7.62852e-016 20   XYZ
    dof rx
    limits (-90.0 20.0)
  end
  begin
     id 6 
     name rhipjoint
     direction -0.569886 -0.769002 0.289597   
     length 2.40495  
     axis 0 0 0  XYZ 
  end
  begin
     id 7 
     name rfemur
     direction -0.34202 -0.939693 0   
     length 7.45086   
     axis 0 0 -20   XYZ
    dof rx ry rz
    limits (-160.0 20.0)
           (-70.0 70.0)
           (-70.0 60.0)
  end
  begin
     id 8 
     name rtibia
     direction -0.34202 -0.939693 0   
     length 7.76831   
     axis 0 0 -20   XYZ
    dof rx
    limits (-10.0 170.0)
 end
 begin
     id 9 
     name rfoot
     direction -0.0798572 -0.219406 0.97236   
     length 2.35911  
     axis -90 -7.62852e-016 -20   XYZ
    dof rx rz
    limits (-45.0 90.0)
           (-20.0 70.0)
  end
  begin
     id 10 
     name rtoes
     direction -1.53469e-011 -4.21728e-011 1   
     length 1.18261   
     axis -90 -7.62852e-016 -20   XYZ
    dof rx
    limits (-90.0 20.0)
  end
  begin
     id 11 
     name lowerback
     direction 0.0242088 0.999437 0.0232389   
     length 2.1561   
     axis 0 0 0   XYZ
    dof rx ry rz
    limits (-20.0 45.0)
           (-30.0 30.0)
           (-30.0 30.0)
  end
  begin
     id 12 
     name upperback
     direction -0.0356893 0.999013 -0.0264323   
     length 2.14431   
     axis 0 0 0   XYZ
    dof rx ry rz
    limits (-20.0 45.0)
           (-30.0 30.0)
           (-30.0 30.0)
  end
  begin
     id 13 
     name thorax
     direction -0.0472163 0.998194 -0.0371284   
     length 2.16169   
     axis 0 0 0   XYZ
    dof rx ry rz
    limits (-20.0 45.0)
           (-30.0 30.0)
           (-30.0 30.0)
  end
  begin
     id 14 
     name lowerneck
     direction 0.00863244 0.999921 0.00911972   
     length 1.58651   
     axis 0 0 0   XYZ
    dof rx ry rz
    limits (-20.0 45.0)
           (-30.0 30.0)
           (-30.0 30.0)
  end
  begin
     id 15 
     name upperneck
     direction 0.149523 0.979068 -0.138086   
     length 1.57486   
     axis 0 0 0   XYZ
    dof rx ry rz
    limits (-20.0 45.0)
           (-30.0 30.0)
           (-30.0 30.0)
  end
  begin
     id 16
     name head
     direction 0.0445219 0.997708 -0.0509576  
     length 1.6019  
     axis 0 0 0   XYZ
    dof rx ry rz
    limits (-20.0 45.0)
           (-30.0 30.0)
           (-30.0 30.0)
  end
  begin
     id 17 
     name lclavicle
     direction 0.911271 0.381667 -0.154644  
     length 3.80848  
     axis 0 0 0   XYZ
    dof ry rz
    limits (-20.0 10.0)
           (0.0 20.0)
  end
  begin
     id 18 
     name lhumerus
     direction 1 -4.49003e-011 2.1308e-027   
     length 5.19069   
     axis 180 -30 -90   XYZ
    dof rx ry rz
    limits (-60.0 90.0)
           (-90.0 90.0)
           (-90.0 90.0)
  end
  begin
     id 19
     name lradius
     direction 1 -4.48914e-011 4.01554e-027   
     length 3.30016   
     axis 180 -30 -90   XYZ
    dof rx
    limits (-10.0 170.0)
  end
  begin
     id 20
     name lwrist
     direction 1 -4.49003e-011 1.1934e-026   
     length 1.65008   
     axis -8.46377e-015 90 90   XYZ
    dof ry
    limits (-180.0 0.0)
 end
  begin
     id 21 
     name lhand
     direction 1 -4.49034e-011 2.38659e-026   
     length 0.707698   
     axis -1.52313e-014 90 90   XYZ
    dof rx rz
    limits (-90.0 90.0)
           (-45.0 45.0)
  end
  begin
     id 22 
     name lfingers
     direction 1 -4.48691e-011 4.77775e-026   
     length 0.570564   
     axis -3.04623e-014 90 90   XYZ
    dof rx
    limits (0.0 90.0)
  end
  begin
     id 23
     name lthumb
     direction 0.707107 -6.34832e-011 0.707107   
     length 0.819219   
     axis -90 45 -1.62303e-014   XYZ
    dof rx rz
    limits (-45.0 45.0)
           (-45.0 45.0)
  end
  begin
     id 24 
     name rclavicle
     direction -0.815579 0.573708 -0.0754329   
     length 3.54371  
     axis 0 0 0   XYZ 
    dof ry rz
    limits (-10.0 20.0)
           (-20.0 0.0)
  end
  begin
     id 25 
     name rhumerus
     direction -1 -4.48956e-011 3.05351e-028  
     length 5.23924   
     axis 180 30 90   XYZ
    dof rx ry rz
    limits (-90.0 60.0)
           (-90.0 90.0)
           (-90.0 90.0)
  end
  begin
     id 26 
     name rradius
     direction -1 -4.49013e-011 3.53849e-027   
     length 3.32953   
     axis 180 30 90   XYZ
    dof rx
    limits (-10.0 170.0)
  end
  begin
     id 27 
     name rwrist
     direction -1 -4.48901e-011 1.19374e-026   
     length 1.66477   
     axis -8.46377e-015 -90 -90   XYZ
    dof ry
    limits (-180.0 0.0)
  end
  begin
     id 28
     name rhand
     direction -1 -4.48877e-011 2.38764e-026   
     length 0.607414   
     axis -1.52313e-014 -90 -90   XYZ
    dof rx rz
    limits (-90.0 90.0)
           (-45.0 45.0)
  end
  begin
     id 29
     name rfingers
     direction -1 -4.48882e-011 4.77521e-026   
     length 0.489712   
     axis -3.04623e-014 -90 -90   XYZ
    dof rx
    limits (0.0 90.0)
  end
  begin
     id 30
     name rthumb
     direction -0.707107 -6.34974e-011 0.707107   
     length 0.703132   
     axis -90 -45 1.62303e-014   XYZ
    dof rx rz
    limits (-45.0 45.0)
           (-45.0 45.0)
  end
:hierarchy
  begin
    root lhipjoint rhipjoint lowerback
    lhipjoint lfemur
    lfemur ltibia
    ltibia lfoot
    lfoot ltoes
    rhipjoint rfemur
    rfemur rtibia
    rtibia rfoot
    rfoot rtoes
    lowerback upperback
    upperback thorax
    thorax lowerneck lclavicle rclavicle
    lowerneck upperneck
    upperneck head
    lclavicle lhumerus
    lhumerus lradius
    lradius lwrist
    lwrist lhand lthumb
    lhand lfingers
    rclavicle rhumerus
    rhumerus rradius
    rradius rwrist
    rwrist rhand rthumb
    rhand rfingers
  end

#!OML:ASF E:\VariousWalksJay\Project 1\Capture day 1\Session 1\Actor2.ASF
:FULLY-SPECIFIED
:DEGREES
482
root 15.0665 17.1609 -5.74958 25.9874 -43.9134 -7.55972
lowerback 16.096 -2.57905 7.9688
upperback 13.6834 -2.98596 -1.50007
thorax 5.37897 -1.00989 -5.75782
lowerneck 5.4219 3.24362 3.30764
upperneck -20.554 4.52777 -1.50579
head -7.05478 1.99754 -1.37518
rclavicle 3.33958e-014 -1.47101e-014
rhumerus -46.5181 20.7706 -89.4907
rradius 62.0804
rwrist 6.35141
rhand -48.9699 11.0198
rfingers 7.12502
rthumb -21.6001 -17.7956
lclavicle 3.33958e-014 -1.47101e-014
lhumerus 7.13839 -49.969 78.5128
lradius 86.834
lwrist 27.7717
lhand -34.1731 -0.773038
lfingers 7.12502
lthumb -7.34666 29.0794
rfemur -15.7899 10.1868 18.9079
rtibia 47.6497
rfoot -1.10723 -4.76133
rtoes -21.3665
lfemur -50.3451 2.95957 -16.4633
ltibia 27.7082
lfoot 2.42487 2.94731
ltoes -4.03529
483
root 15.0183 17.184 -5.63695 26.258 -43.9452 -7.76039
lowerback 16.2017 -2.50981 7.8869
upperback 13.6528 -2.89627 -1.42807
thorax 5.30653 -0.9794 -5.64033
lowerneck 5.28678 3.24504 3.43438
upperneck -20.4947 4.51758 -1.61695
head -7.00574 1.99365 -1.42716
rclavicle 2.38542e-014 -2.14687e-014
rhumerus -46.2001 20.9226 -89.326
rradius 62.1408
rwrist 6.36152
rhand -49.0078 10.8224
rfingers 7.12502
rthumb -21.6365 -17.9887
lclavicle 2.38542e-014 -2.14687e-014
lhumerus 7.57508 -49.8284 78.1344
lradius 86.705
lwrist 28.0205
lhand -34.2026 -0.732448
lfingers 7.12502
lthumb -7.37511 29.119
rfemur -16.5596 10.2038 18.8508
rtibia 48.9169
rfoot 0.361332 -4.95836
rtoes -20.3086
lfemur -50.3445 2.84503 -16.4173
ltibia 28.2665
lfoot 2.02546 3.20517
ltoes -4.20793
484
root 14.9727 17.2047 -5.52859 26.531 -43.9823 -7.97398
lowerback 16.3353 -2.43944 7.8046
upperback 13.6272 -2.80392 -1.35306
thorax 5.22536 -0.948183 -5.51924
lowerneck 5.13842 3.25105 3.56213
upperneck -20.4373 4.51184 -1.73439
head -6.9547 1.99224 -1.48132
rclavicle 2.22639e-014 8.74653e-015
rhumerus -45.8284 21.0878 -89.1436
rradius 62.2552
rwrist 6.35974
rhand -49.0401 10.6086
rfingers 7.12502
rthumb -21.6675 -18.199
lclavicle 2.22639e-014 8.74653e-015
lhumerus 8.14366 -49.6634 77.6131
lradius 86.5933
lwrist 28.2947
lhand -34.2244 -0.676709
lfingers 7.12502
lthumb -7.39617 29.174
rfemur -17.5097 10.1966 18.8239
rtibia 50.4641
rfoot 1.71176 -5.15924
rtoes -19.4346
lfemur -50.371 2.78466 -16.3924
ltibia 28.8527
lfoot 1.60725 3.43461
ltoes -4.41945
485
root 14.9295 17.2225 -5.42463 26.7913 -44.0234 -8.18975
lowerback 16.5011 -2.36904 7.71998
upperback 13.609 -2.71043 -1.27772
thorax 5.13579 -0.916954 -5.39616
lowerneck 4.9792 3.26062 3.69026
upperneck -20.384 4.50951 -1.85596
head -6.90292 1.9926 -1.53687
rclavicle 3.18055e-015 4.45278e-014
rhumerus -45.4076 21.2598 -88.9456
rradius 62.4341
rwrist 6.33733
rhand -49.0659 10.3828
rfingers 7.12502
rthumb -21.6923 -18.4218
lclavicle 3.18055e-015 4.45278e-014
lhumerus 8.85132 -49.4746 76.9397
lradius 86.5019
lwrist 28.5924
lhand -34.2427 -0.604457
lfingers 7.12502
lthumb -7.41385 29.2456
rfemur -18.6305 10.1588 18.824
rtibia 52.2877
rfoot 2.87863 -5.32931
rtoes -18.7995
lfemur -50.4264 2.7866 -16.407
ltibia 29.4809
lfoot 1.17241 3.63045
ltoes -4.67119
486
root 14.8889 17.2366 -5.32516 27.0226 -44.0667 -8.39516
lowerback 16.7025 -2.29951 7.63026
upperback 13.6007 -2.61725 -1.20444
thorax 5.03864 -0.886455 -5.272
lowerneck 4.81257 3.27211 3.81932
upperneck -20.3385 4.50865 -1.98071
head -6.85221 1.99358 -1.59359
rclavicle -5.56597e-015 2.26615e-014
rhumerus -44.9427 21.4318 -88.7341
rradius 62.6868
rwrist 6.28714
rhand -49.0857 10.1485
rfingers 7.12502
rthumb -21.7113 -18.654
lclavicle -5.56597e-015 2.26615e-014
lhumerus 9.70545 -49.2625 76.106
lradius 86.4323
lwrist 28.9125
lhand -34.2617 -0.51275
lfingers 7.12502
lthumb -7.43221 29.3367
rfemur -19.9081 10.0859 18.8469
rtibia 54.3753
rfoot 3.79351 -5.44309
rtoes -18.4341
lfemur -50.5139 2.85846 -16.4823
ltibia 30.1668
lfoot 0.722479 3.79499
ltoes -4.9588
487
root 14.8506 17.2464 -5.23017 27.2087 -44.111 -8.57878
lowerback 16.9437 -2.23183 7.53259
upperback 13.6045 -2.52594 -1.13483
thorax 4.93416 -0.857555 -5.1467
lowerneck 4.64315 3.28387 3.94948
upperneck -20.3042 4.50709 -2.10919
head -6.8046 1.99408 -1.65171
rclavicle -6.20208e-014 1.19271e-015
rhumerus -44.4395 21.6 -88.5113
rradius 63.0208
rwrist 6.20455
rhand -49.1015 9.90516
rfingers 7.12502
rthumb -21.7265 -18.8956
lclavicle -6.20208e-014 1.19271e-015
lhumerus 10.7092 -49.0247 75.1105
lradius 86.3847
lwrist 29.2544
lhand -34.2853 -0.397405
lfingers 7.12502
lthumb -7.45493 29.4512
rfemur -21.3232 9.97705 18.8886
rtibia 56.7068
rfoot 4.39484 -5.48777
rtoes -18.3437
lfemur -50.6353 3.0062 -16.6385
ltibia 30.9259
lfoot 0.257732 3.93869
ltoes -5.2774
